<svg width="100" height="100" viewBox="0 0 100 100" fill="none" xmlns="http://www.w3.org/2000/svg">
<path d="M20.5518 33.0083H10V67.0735H14.2394V58.4931L21.2624 58.481L22.7183 57.0249V35.1703L20.5518 33.0083ZM18.5266 54.1458H14.1918V36.9075H18.5266V54.1458Z" fill="#2E2E2E"/>
<path d="M52.577 32.9521L52.5774 63.1367H48.1137V32.9521L43.9224 33.0085V65.1687L46.0245 67.1413H54.667L56.7691 65.1687L56.7687 32.9521H52.577Z" fill="#2E2E2E"/>
<path d="M60.9609 32.9521H65.1527V63.1367H69.6851V55.5449H73.8764L73.876 67.0737H60.9614L60.9609 32.9521Z" fill="#2E2E2E"/>
<path d="M82.2597 36.889H86.7229L86.7234 44.173H90.9151V34.9809L88.813 33.0083H80.1705L78.0684 34.9809V47.4541L86.7234 52.6277V63.1928H82.2601L82.2597 55.9084H78.0684V65.1005L80.1705 67.0735H88.8126L90.9147 65.1005L90.9151 50.331L82.2597 45.1574V36.889Z" fill="#2E2E2E"/>
<path d="M37.6553 32.9517H29.0128L26.9106 34.9247V67.0156H31.1548L31.102 49.4114H35.5657V67.0156H39.7574V34.9247L37.6553 32.9517ZM31.102 44.1172V36.8328H35.5652V44.1172H31.102Z" fill="#2E2E2E"/>
<path d="M90.9999 28.2976H10.0391V13.3465L13.4068 10.0077H29.4392L31.1937 10L32.9358 10.0077H87.6558L90.9991 13.3521L90.9999 28.2976ZM14.2497 24.0795H86.7897V15.1013L85.915 14.2259H32.9199L31.1937 14.2181L29.4452 14.2259H15.139L14.2493 15.1069L14.2497 24.0795Z" fill="#2E2E2E"/>
<path d="M87.6578 90.9994H13.3774L10.041 87.624V72.71H61.8147L67.1076 77.8539L72.0314 72.71H91.0002V87.6559L87.6578 90.9994ZM15.1315 86.7813H85.9153L86.79 85.9067V76.9281H73.8272L67.2154 83.8355L60.1079 76.9281H14.2495V85.889L15.1315 86.7813Z" fill="#2E2E2E"/>
</svg>
