<?xml version="1.0" standalone="no"?>
<!DOCTYPE svg PUBLIC "-//W3C//DTD SVG 20010904//EN"
 "http://www.w3.org/TR/2001/REC-SVG-20010904/DTD/svg10.dtd">
<svg version="1.0" xmlns="http://www.w3.org/2000/svg"
 width="400.000000pt" height="400.000000pt" viewBox="0 0 400.000000 400.000000"
 preserveAspectRatio="xMidYMid meet">

<g transform="translate(0.000000,400.000000) scale(0.100000,-0.100000)"
fill="#000000" stroke="none">
<path d="M765 3875 c-133 -25 -265 -83 -309 -135 -50 -60 -27 -168 44 -205 18
-9 61 -23 97 -30 36 -8 67 -16 70 -19 3 -3 -24 -19 -61 -36 -161 -77 -262
-185 -285 -308 -12 -61 -5 -96 26 -127 40 -39 95 -34 185 15 187 103 318 161
421 187 70 18 110 24 116 18 13 -14 -10 -113 -29 -125 -8 -6 -35 -10 -60 -10
-74 -1 -123 -16 -152 -50 -24 -26 -28 -39 -28 -94 0 -99 30 -158 61 -120 8 9
10 32 5 68 -7 61 -2 66 64 66 62 0 137 20 156 41 10 11 21 44 25 78 4 41 15
70 33 94 36 47 47 90 34 127 -13 38 -35 50 -88 50 -130 0 -345 -78 -540 -196
-58 -34 -144 -63 -156 -51 -14 14 30 84 79 125 109 91 222 134 530 202 115 25
137 42 137 99 0 67 -14 71 -240 71 -191 0 -298 10 -352 31 -34 14 -29 23 30
53 159 80 450 94 657 31 161 -49 334 -148 440 -252 22 -21 60 -77 85 -123 83
-156 92 -161 431 -274 384 -128 508 -185 591 -274 55 -58 79 -122 57 -148 -22
-28 -243 -129 -384 -177 -420 -143 -874 -156 -1255 -35 -106 34 -265 110 -352
169 -80 54 -157 135 -180 186 -23 53 -16 83 37 157 38 54 47 113 21 135 -12
10 -22 2 -54 -41 -54 -71 -72 -119 -72 -189 0 -39 -6 -69 -19 -91 -49 -83 -55
-135 -55 -443 -1 -234 3 -307 17 -380 69 -361 204 -633 421 -851 183 -182 397
-299 640 -349 44 -9 83 -18 88 -21 4 -3 8 -26 8 -51 l0 -45 -37 6 c-91 15
-335 18 -411 6 -102 -16 -179 -46 -199 -76 -20 -32 -22 -103 -4 -138 35 -65
216 -117 474 -137 270 -21 447 20 514 120 30 44 31 143 4 230 -10 33 -16 63
-13 66 3 3 20 5 38 5 57 0 241 40 329 70 46 17 92 30 103 30 16 0 33 -26 80
-123 38 -78 73 -137 97 -160 81 -79 206 -70 413 28 203 97 344 203 426 319 54
77 76 133 76 194 0 90 -44 134 -133 133 -103 -1 -308 -85 -456 -186 -44 -30
-85 -55 -91 -55 -13 0 -50 59 -50 80 0 9 25 40 56 70 31 30 82 89 113 130 60
81 175 296 211 396 20 57 25 62 63 74 193 57 435 234 526 385 56 93 74 157 79
281 5 138 -17 237 -82 369 -79 157 -187 267 -314 316 -73 29 -239 31 -316 4
-46 -16 -50 -16 -59 0 -86 155 -421 288 -788 314 -150 10 -355 0 -436 -23 -49
-13 -52 -13 -71 8 -11 11 -37 54 -57 95 -61 122 -174 220 -363 315 -204 102
-450 140 -657 101z m1815 -650 c220 -46 390 -117 475 -198 52 -51 57 -77 23
-145 -23 -50 -137 -172 -159 -172 -8 0 -21 24 -31 58 -35 117 -120 204 -272
277 -73 34 -354 136 -483 174 -123 37 -96 45 125 38 156 -5 223 -12 322 -32z
m875 -271 c166 -43 310 -197 376 -403 26 -81 30 -107 27 -167 -9 -132 -90
-260 -242 -380 -78 -62 -232 -147 -290 -160 -28 -7 -29 -6 -23 24 4 17 9 78
13 136 4 57 10 108 13 113 3 5 27 24 54 43 58 41 101 106 122 185 19 74 19
118 1 179 -34 114 -105 170 -204 164 l-55 -3 -18 65 c-10 36 -18 95 -19 132
l0 67 38 6 c20 4 44 8 52 10 39 8 101 4 155 -11z m-301 -161 c63 -219 97 -425
103 -623 8 -256 -16 -373 -121 -596 -97 -203 -202 -335 -357 -449 -87 -64 -96
-76 -89 -125 1 -8 8 -21 15 -29 11 -12 19 -10 49 8 l36 23 17 -32 c39 -70 93
-150 102 -150 5 0 30 18 55 39 119 103 384 221 495 221 72 0 81 -11 52 -65
-101 -191 -550 -448 -732 -419 -60 10 -105 55 -150 148 -45 93 -47 108 -17
121 28 12 43 53 34 90 -6 24 -11 27 -39 22 -18 -2 -81 -23 -141 -46 -211 -82
-356 -107 -571 -98 -170 7 -287 27 -424 73 -389 129 -673 421 -810 831 -66
196 -75 270 -76 578 0 275 7 342 35 360 5 3 44 -29 87 -72 189 -191 462 -307
828 -353 119 -15 385 -13 509 5 463 65 911 279 1056 505 34 53 46 60 54 33z
m219 -237 c81 -34 110 -124 65 -201 -25 -42 -104 -109 -119 -99 -5 3 -9 22
-10 42 0 20 -8 88 -18 150 -9 62 -15 115 -12 117 9 10 62 5 94 -9z m-1482
-1851 l56 -6 28 -70 c39 -100 38 -127 -4 -156 -73 -49 -128 -58 -366 -57 -186
0 -234 4 -310 21 -158 37 -180 54 -96 72 93 20 209 24 354 11 80 -6 154 -9
165 -6 29 10 42 50 42 132 l0 74 38 -5 c20 -2 62 -7 93 -10z"/>
<path d="M2643 2378 c-4 -7 -10 -66 -13 -130 -3 -64 -9 -120 -13 -124 -16 -16
-56 39 -67 92 -13 61 -25 73 -48 50 -14 -14 -15 -24 -4 -87 14 -78 32 -121 70
-161 52 -57 93 -21 111 97 15 101 14 248 -1 263 -15 15 -25 15 -35 0z"/>
<path d="M762 2318 c-8 -8 -12 -50 -12 -118 0 -150 40 -283 125 -416 35 -55
58 -67 69 -38 13 33 5 68 -28 123 -83 139 -116 244 -116 374 0 68 -15 98 -38
75z"/>
<path d="M2347 2263 c-3 -4 -8 -57 -12 -118 -3 -60 -11 -125 -17 -143 -8 -28
-14 -33 -36 -30 -32 4 -64 48 -88 121 -22 68 -32 81 -51 65 -50 -41 50 -284
127 -310 73 -25 124 116 118 322 -3 79 -6 95 -20 98 -9 2 -18 -1 -21 -5z"/>
<path d="M2913 2209 c-14 -14 -17 -77 -5 -96 4 -6 20 -15 35 -18 25 -7 27 -11
22 -39 -70 -351 -400 -608 -725 -566 -140 19 -244 73 -346 182 -34 36 -75 93
-92 127 l-30 60 19 38 c19 37 19 77 -1 97 -13 14 -99 -35 -160 -91 -89 -81
-156 -244 -120 -288 18 -21 24 -14 64 69 23 48 51 87 78 110 23 20 45 36 48
36 4 0 27 -42 53 -92 89 -180 237 -310 401 -354 28 -8 99 -14 158 -14 125 0
225 26 321 84 193 116 318 290 374 519 26 107 27 108 52 102 58 -15 75 -11 85
18 22 62 -47 116 -159 124 -41 3 -64 1 -72 -8z"/>
<path d="M1041 1671 c-38 -38 -16 -151 28 -151 43 0 63 74 34 129 -22 43 -36
48 -62 22z"/>
<path d="M95 3658 c-47 -36 -63 -59 -75 -111 -21 -85 8 -155 77 -184 95 -39
213 66 213 189 0 71 -49 117 -133 124 -43 4 -57 1 -82 -18z m113 -109 c17 -6
29 -16 26 -23 -8 -20 -60 -46 -92 -46 -68 0 -82 28 -29 60 37 23 52 24 95 9z"/>
<path d="M1609 3014 c-15 -19 -17 -80 -3 -94 6 -6 54 -25 106 -44 118 -41 209
-91 278 -153 50 -45 53 -46 66 -28 19 26 17 51 -8 96 -27 48 -77 88 -170 138
-56 30 -234 101 -253 101 -1 0 -9 -7 -16 -16z"/>
<path d="M1530 2770 c-18 -11 -23 -73 -8 -94 21 -26 247 -83 259 -64 12 18 11
65 -1 88 -15 28 -223 87 -250 70z"/>
</g>
</svg>
