<svg width="66" height="66" viewBox="0 0 66 66" fill="none" xmlns="http://www.w3.org/2000/svg">
<path d="M49.6997 7.00004H17.3003C15.9466 6.99615 14.6054 7.25896 13.3539 7.7734C12.1025 8.28784 10.9654 9.04375 10.0082 9.99764C9.05095 10.9515 8.29238 12.0846 7.77613 13.3316C7.25987 14.5787 6.99613 15.9152 7.00004 17.2642V49.7358C6.99613 51.0848 7.25987 52.4213 7.77613 53.6683C8.29238 54.9154 9.05095 56.0485 10.0082 57.0024C10.9654 57.9563 12.1025 58.7122 13.3539 59.2266C14.6054 59.741 15.9466 60.0039 17.3003 60H49.6997C51.0534 60.0039 52.3946 59.741 53.646 59.2266C54.8975 58.7122 56.0345 57.9563 56.9918 57.0024C57.949 56.0485 58.7076 54.9154 59.2238 53.6683C59.7401 52.4213 60.0039 51.0848 60 49.7358V17.2642C60.0039 15.9152 59.7401 14.5787 59.2238 13.3316C58.7076 12.0846 57.949 10.9515 56.9918 9.99764C56.0345 9.04375 54.8975 8.28784 53.646 7.7734C52.3946 7.25896 51.0534 6.99615 49.6997 7.00004ZM44.8308 13.3541H53.8193V22.3111H44.8308V13.3541ZM26.2912 28.1047C27.1153 26.8835 28.2314 25.8858 29.539 25.2016C30.8466 24.5174 32.3045 24.1683 33.7812 24.1856C35.2541 24.1897 36.7042 24.5482 38.0082 25.2305C39.3123 25.9128 40.4317 26.8989 41.2713 28.1047C42.3293 29.7166 42.9131 31.5915 42.9566 33.517C42.9493 35.9897 41.9604 38.359 40.2058 40.1074C38.4512 41.8558 36.0736 42.8413 33.5922 42.8485C32.3696 42.8848 31.153 42.6653 30.0208 42.2042C28.8886 41.743 27.8661 41.0505 27.0191 40.1712C26.1721 39.2919 25.5195 38.2454 25.1035 37.0993C24.6874 35.9531 24.5172 34.7328 24.6037 33.517C24.5545 31.5726 25.1465 29.6658 26.2889 28.0888L26.2912 28.1047ZM54.9443 49.7517C54.947 50.4141 54.8181 51.0704 54.565 51.6828C54.3119 52.2953 53.9396 52.8517 53.4696 53.3201C52.9996 53.7884 52.4412 54.1594 51.8266 54.4116C51.212 54.6639 50.5533 54.7923 49.8887 54.7896H17.4871C16.8224 54.7923 16.1637 54.6639 15.5491 54.4116C14.9345 54.1594 14.3761 53.7884 13.9061 53.3201C13.4361 52.8517 13.0639 52.2953 12.8107 51.6828C12.5576 51.0704 12.4287 50.4141 12.4314 49.7517V28.1047H20.2973C19.5494 29.8114 19.167 31.6547 19.1745 33.517C19.1745 37.328 20.6938 40.9829 23.398 43.6777C26.1023 46.3724 29.7701 47.8863 33.5945 47.8863C37.4189 47.8863 41.0867 46.3724 43.7909 43.6777C46.4952 40.9829 48.0145 37.328 48.0145 33.517C47.993 31.6748 47.677 29.8478 47.0785 28.1047H54.9443V49.7517Z" fill="#2E2E2E"/>
</svg>
