<svg width="37" height="37" viewBox="0 0 37 37" fill="none" xmlns="http://www.w3.org/2000/svg">
<path d="M18.5 4C7.85638 4 4.30851 9.39927 4.30851 10.5909V11.9091C4.30851 12.6367 4.88649 13.2273 5.59865 13.2273H31.4014C32.1135 13.2273 32.6915 12.6367 32.6915 11.9091V10.5909C32.6915 9.39927 29.1436 4 18.5 4ZM4.30851 15.8636C4.13755 15.8612 3.96782 15.8934 3.80917 15.9586C3.65053 16.0237 3.50613 16.1204 3.38438 16.2431C3.26263 16.3657 3.16596 16.5119 3.09997 16.673C3.03398 16.8342 3 17.0071 3 17.1818C3 17.3565 3.03398 17.5295 3.09997 17.6906C3.16596 17.8518 3.26263 17.9979 3.38438 18.1206C3.50613 18.2432 3.65053 18.3399 3.80917 18.4051C3.96782 18.4702 4.13755 18.5025 4.30851 18.5H32.6915C32.8624 18.5025 33.0322 18.4702 33.1908 18.4051C33.3495 18.3399 33.4939 18.2432 33.6156 18.1206C33.7374 17.9979 33.834 17.8518 33.9 17.6906C33.966 17.5295 34 17.3565 34 17.1818C34 17.0071 33.966 16.8342 33.9 16.673C33.834 16.5119 33.7374 16.3657 33.6156 16.2431C33.4939 16.1204 33.3495 16.0237 33.1908 15.9586C33.0322 15.8934 32.8624 15.8612 32.6915 15.8636H4.30851ZM5.01153 21.1364C3.91105 21.1364 3.01837 22.0484 3.01837 23.1729C3.01837 24.2986 3.91105 25.2093 5.01153 25.2093H31.9859C33.0877 25.2093 33.9791 24.2973 33.9791 23.1729C33.9804 22.0484 33.089 21.1364 31.9885 21.1364H28.4356C27.4731 21.1364 23.6605 23.7727 23.6605 23.7727C23.6605 23.7727 15.9203 21.1364 13.5864 21.1364H5.01153ZM5.59865 27.7273C4.88649 27.7273 4.30851 28.3178 4.30851 29.0455V30.3636C4.30851 31.8202 5.46318 33 6.88878 33H30.1112C31.5368 33 32.6915 31.8202 32.6915 30.3636V29.0455C32.6915 28.3178 32.1135 27.7273 31.4014 27.7273H5.59865Z" fill="#2E2E2E"/>
</svg>
