<svg width="62" height="62" viewBox="0 0 62 62" fill="none" xmlns="http://www.w3.org/2000/svg">
<path d="M34.9657 7C26.0255 7 18.1207 10.6358 12.4186 15.2961C6.71646 19.9565 3 25.5067 3 30.5V39.6261C3 44.4647 7.02053 48.125 11.7127 48.125C13.9226 48.125 15.6648 47.5277 17.0646 47.0311C18.4643 46.5345 19.5041 46.1667 20.6824 46.1667C22.4083 46.1667 24.6768 47.7485 27.7914 49.7659C30.906 51.7832 34.9332 54 40.3406 54C50.1107 54 57.9961 45.9225 57.9961 36.0269V26.721C57.999 26.6752 58.0003 26.6293 57.9999 26.5833C57.9999 25.4509 57.7059 24.012 57.0178 22.0738C56.3297 20.1356 55.2277 17.839 53.5228 15.606C50.113 11.1398 44.1488 7 34.9657 7ZM34.9657 10.9167C43.0034 10.9167 47.5756 14.2832 50.396 17.9774C51.8062 19.8245 52.7398 21.7709 53.3118 23.3819C53.8816 24.9871 54.0662 26.3916 54.0675 26.5719C54.0675 26.5757 54.0675 26.5795 54.0675 26.5833V28.8668C53.9492 38.2158 48.8607 42.25 40.3406 42.25C30.58 42.25 26.0508 34.4167 20.6824 34.4167C17.512 34.4167 15.4428 36.375 11.7127 36.375C8.09643 36.375 6.92857 32.6965 6.92857 31.265V30.5C6.92857 27.7148 9.81145 22.4913 14.9085 18.3254C20.0055 14.1596 27.1013 10.9167 34.9657 10.9167ZM34.4285 14.8333C31.7493 14.8333 29.0786 15.425 26.5407 16.3748C25.7373 16.6744 25.6618 17.7861 26.4141 18.1954L29.1419 19.6794C29.4915 19.8694 29.7512 20.1888 29.8593 20.5706L30.9604 24.4758C31.1096 25.0046 31.4933 25.4347 32 25.6462L33.9605 26.4648C34.8523 26.8368 35.8807 26.4413 36.2892 25.5659L40.1986 17.2048C40.4972 16.5663 40.1742 15.7884 39.4965 15.5907C37.764 15.0893 36.0216 14.8333 34.4285 14.8333ZM44.154 17.7594C43.6455 17.6742 43.1146 17.9126 42.8803 18.4134L39.0822 26.5413C38.6422 27.4813 39.0751 28.5973 40.0337 28.9968L47.2923 32.0261C48.2057 32.408 49.2822 31.9468 49.5788 31.0049C49.9324 29.8847 50.1126 28.6856 50.0929 27.4401C50.0929 23.2258 47.7743 20.0596 44.6413 17.9544C44.4881 17.8511 44.3236 17.7878 44.154 17.7594ZM21.4267 19.2013C21.0036 19.2111 20.5845 19.3297 20.2182 19.5647C14.6887 23.1171 10.8073 27.7026 10.8073 29.7236C10.8053 31.1081 11.9264 32.4583 13.2818 32.4583C16.6427 32.4583 18.5614 30.5 20.6632 30.5C23.9082 30.5 26.3905 31.6414 28.6239 33.0435C29.3487 33.4998 30.2522 32.8238 30.0204 31.9993L27.4078 22.7317C27.2683 22.2362 26.9311 21.8214 26.4793 21.5766L22.6582 19.4997C22.2751 19.2921 21.8497 19.1915 21.4267 19.2013ZM33.6267 29.6891C33.0567 29.7957 32.6236 30.3742 32.8019 31.0087L34.4401 36.8187C35.9761 37.6255 37.6138 38.1842 39.5349 38.1842C41.7978 38.1842 43.7747 37.5736 45.3932 36.5356C46.2418 35.9912 46.1555 34.7317 45.2244 34.344L34.2252 29.7542C34.0219 29.6695 33.8167 29.6536 33.6267 29.6891Z" fill="#2E2E2E"/>
</svg>
