<svg width="62" height="62" viewBox="0 0 62 62" fill="none" xmlns="http://www.w3.org/2000/svg">
<path d="M53.9514 6.00069C53.7638 6.00602 49.3341 6.15877 46.4132 9.08055C43.4905 12.0023 43.3404 16.4321 43.3351 16.6187C43.3084 17.6205 44.1129 18.4451 45.1111 18.4451C46.0418 18.4451 50.0526 18.0115 52.6979 15.3635C55.6197 12.4418 55.7707 8.01201 55.776 7.82534C55.7992 6.93823 55.0936 5.97047 53.9514 6.00069ZM37.1111 10.4677C36.6367 10.4677 36.1632 10.6431 35.8281 10.9937C35.6983 11.1289 32.6667 14.342 32.6667 18.4451C32.6667 22.47 35.5768 25.6364 35.8559 25.9208C36.5172 26.5777 39.6036 29.1118 43.3333 29.1118C47.4364 29.1118 50.6496 26.081 50.7847 25.9521C51.6069 25.1654 51.4229 23.9933 50.7847 23.3826C50.6496 23.2537 47.4364 20.2229 43.3333 20.2229C42.6293 20.2229 41.9534 20.3175 41.3125 20.466C41.4609 19.8251 41.5556 19.1491 41.5556 18.4451C41.5556 14.342 38.5247 11.1289 38.3958 10.9937C38.0607 10.6431 37.5856 10.4677 37.1111 10.4677ZM28.2222 19.3566C27.7478 19.3566 27.2743 19.532 26.9392 19.8826C26.8095 20.0177 23.7778 23.2309 23.7778 27.334C23.7778 31.3589 26.6879 34.5253 26.967 34.8097C27.6283 35.4666 30.7147 38.0007 34.4444 38.0007C38.5476 38.0007 41.7607 34.9699 41.8958 34.841C42.7181 34.0543 42.5341 32.8822 41.8958 32.2715C41.7607 32.1426 38.5476 29.1118 34.4444 29.1118C33.7404 29.1118 33.0645 29.2064 32.4236 29.3549C32.5721 28.714 32.6667 28.038 32.6667 27.334C32.6667 23.2309 29.6358 20.0177 29.5069 19.8826C29.1718 19.532 28.6967 19.3566 28.2222 19.3566ZM19.3333 28.2455C18.8589 28.2455 18.3855 28.4209 18.0503 28.7715C17.9206 28.9066 14.8889 32.1198 14.8889 36.2229C14.8889 40.2478 17.799 43.4142 18.0781 43.6986C18.7395 44.3555 21.8258 46.8896 25.5556 46.8896C29.6587 46.8896 32.8718 43.8587 33.0069 43.7299C33.8292 42.9432 33.6452 41.7711 33.0069 41.1604C32.8718 41.0315 29.6587 38.0007 25.5556 38.0007C24.8516 38.0007 24.1756 38.0953 23.5347 38.2437C23.6832 37.6029 23.7778 36.9269 23.7778 36.2229C23.7778 32.1198 20.7469 28.9066 20.6181 28.7715C20.2829 28.4209 19.8078 28.2455 19.3333 28.2455ZM10.4444 37.1344C9.97 37.1344 9.49657 37.3097 9.16146 37.6604C9.03168 37.7955 6 41.0087 6 45.1118C6 49.1367 8.91013 52.3031 9.18924 52.5875C9.85057 53.2444 12.9369 55.7785 16.6667 55.7785C20.7698 55.7785 23.9829 52.7476 24.1181 52.6187C24.9403 51.8321 24.7563 50.66 24.1181 50.0493C23.9829 49.9204 20.7698 46.8896 16.6667 46.8896C15.9627 46.8896 15.2867 46.9842 14.6458 47.1326C14.7943 46.4917 14.8889 45.8158 14.8889 45.1118C14.8889 41.0087 11.8581 37.7955 11.7292 37.6604C11.3941 37.3097 10.9189 37.1344 10.4444 37.1344Z" fill="#2E2E2E"/>
</svg>
